HIERARCHY
ROOT Hips
{
	OFFSET 55.234600 -14.073215 91.596703
	CHANNELS 6 Xposition Yposition Zposition Xrotation Yrotation Zrotation
	JOINT spine
	{
		OFFSET 0.000000 -0.393701 6.846367
		CHANNELS 3 Xrotation Yrotation Zrotation
		JOINT spine1
		{
			OFFSET 0.000000 -0.000001 9.496208
			CHANNELS 3 Xrotation Yrotation Zrotation
			JOINT spine2
			{
				OFFSET 0.000000 -0.000002 9.099091
				CHANNELS 3 Xrotation Yrotation Zrotation
				JOINT Neck
				{
					OFFSET 0.000000 -1.113784 23.361198
					CHANNELS 3 Xrotation Yrotation Zrotation
					JOINT Head
					{
						OFFSET 0.000000 -0.000001 7.058014
						CHANNELS 3 Xrotation Yrotation Zrotation
						End Site
						{
							OFFSET 0.000000 5.634188 17.084396
						}
					}
				}
				JOINT RightShoulder
				{
					OFFSET -3.831360 0.533489 9.826309
					CHANNELS 3 Xrotation Yrotation Zrotation
					JOINT RightArm
					{
						OFFSET 0.000000 -0.000002 12.888100
						CHANNELS 3 Xrotation Yrotation Zrotation
						JOINT RightArmRoll
						{
							OFFSET 0.000000 -0.000001 6.506165
							CHANNELS 3 Xrotation Yrotation Zrotation
							JOINT RightForeArm
							{
								OFFSET 0.000000 -0.000003 18.950104
								CHANNELS 3 Xrotation Yrotation Zrotation
								JOINT RightForeArmRoll
								{
									OFFSET 0.000000 -0.000001 7.300919
									CHANNELS 3 Xrotation Yrotation Zrotation
									JOINT RightHand
									{
										OFFSET 0.000000 -0.000003 14.651398
										CHANNELS 3 Xrotation Yrotation Zrotation
										End Site
										{
											OFFSET 0.000000 0.000000 0.100006
										}
									}
								}
							}
						}
					}
				}
				JOINT LeftShoulder
				{
					OFFSET 3.831360 0.533489 9.826309
					CHANNELS 3 Xrotation Yrotation Zrotation
					JOINT LeftArm
					{
						OFFSET 0.000000 -0.000002 12.888100
						CHANNELS 3 Xrotation Yrotation Zrotation
						JOINT LeftArmRoll
						{
							OFFSET 0.000000 -0.000001 6.506165
							CHANNELS 3 Xrotation Yrotation Zrotation
							JOINT LeftForeArm
							{
								OFFSET 0.000000 -0.000003 18.950104
								CHANNELS 3 Xrotation Yrotation Zrotation
								JOINT LeftForeArmRoll
								{
									OFFSET 0.000000 -0.000001 7.300919
									CHANNELS 3 Xrotation Yrotation Zrotation
									JOINT LeftHand
									{
										OFFSET 0.000000 -0.000003 14.651398
										CHANNELS 3 Xrotation Yrotation Zrotation
										End Site
										{
											OFFSET 0.000000 0.000000 0.100006
										}
									}
								}
							}
						}
					}
				}
			}
		}
	}
	JOINT RightUpLeg
	{
		OFFSET -6.068371 0.933478 -1.112778
		CHANNELS 3 Xrotation Yrotation Zrotation
		JOINT RightUpLegRoll
		{
			OFFSET 0.000000 -0.000003 17.179604
			CHANNELS 3 Xrotation Yrotation Zrotation
			JOINT RightLeg
			{
				OFFSET 0.000000 0.000003 -21.274300
				CHANNELS 3 Xrotation Yrotation Zrotation
				JOINT RightLegRoll
				{
					OFFSET 0.000000 -0.000003 21.343903
					CHANNELS 3 Xrotation Yrotation Zrotation
					JOINT RightFoot
					{
						OFFSET 0.000000 -0.000003 17.765198
						CHANNELS 3 Xrotation Yrotation Zrotation
						JOINT RightToeBase
						{
							OFFSET 0.000000 -0.000003 14.850792
							CHANNELS 3 Xrotation Yrotation Zrotation
							End Site
							{
								OFFSET 0.006294 0.829003 7.192139
							}
						}
					}
				}
			}
		}
	}
	JOINT LeftUpLeg
	{
		OFFSET 6.068371 0.933478 -1.112778
		CHANNELS 3 Xrotation Yrotation Zrotation
		JOINT LeftUpLegRoll
		{
			OFFSET 0.000000 -0.000003 17.179703
			CHANNELS 3 Xrotation Yrotation Zrotation
			JOINT LeftLeg
			{
				OFFSET 0.000000 -0.000004 21.274208
				CHANNELS 3 Xrotation Yrotation Zrotation
				JOINT LeftLegRoll
				{
					OFFSET 0.000000 -0.000004 21.541199
					CHANNELS 3 Xrotation Yrotation Zrotation
					JOINT LeftFoot
					{
						OFFSET 0.000000 -0.000003 17.567902
						CHANNELS 3 Xrotation Yrotation Zrotation
						JOINT LeftToeBase
						{
							OFFSET 0.000000 -0.000002 14.850800
							CHANNELS 3 Xrotation Yrotation Zrotation
							End Site
							{
								OFFSET -0.028210 0.829003 7.192139
							}
						}
					}
				}
			}
		}
	}
}
MOTION
Frames: 6
Frame Time: 0.041667
55.042191 -12.855714 91.611694 -0.573911 -0.055183 0.012129 -2.464299 0.015228 -0.038474 -0.926843 0.036682 -0.074244 0.718230 0.035688 -0.074657 20.487398 -0.024873 0.084576 0.707802 0.313929 0.025684 -16.387825 -41.230833 -19.042923 41.224887 -47.204896 79.212115 -0.000003 0.000015 -0.000003 2.509087 3.475485 -0.970115 -0.000004 0.000005 -2.999998 -5.000211 -7.998824 0.000131 -16.215943 39.077295 18.779166 45.562269 35.970358 -86.841696 0.000002 -0.000002 0.000001 -0.028074 -3.614589 -0.583915 -0.000002 -0.000010 3.077009 -5.000203 7.999071 -0.000099 -4.848045 -176.670930 0.262875 179.999991 -0.000005 -1.012994 173.194582 -2.286789 -0.336822 0.000007 0.000001 0.079706 69.061709 6.897957 2.101109 25.456955 -7.355615 0.000001 -1.812937 176.607696 0.882970 -0.000005 -0.000004 -1.071470 -7.050970 1.601701 0.307946 -0.000004 -0.000001 -0.085911 69.224008 -6.896880 -2.088598 25.456960 7.355615 -0.000001 
55.042992 -12.858313 91.610001 -0.575327 -0.054382 0.010636 -2.463629 0.015423 -0.038436 -0.925619 0.036780 -0.073937 0.719455 0.035788 -0.074347 20.477201 -0.024851 0.085004 0.716559 0.312620 0.025689 -16.393443 -41.230017 -19.049514 41.227459 -47.213341 79.211527 -0.000003 0.000015 -0.000005 2.536490 3.472053 -0.970229 -0.000004 0.000006 -3.000003 -5.000210 -7.998824 0.000132 -16.218013 39.075505 18.781219 45.565206 35.967131 -86.846716 -0.000000 -0.000001 -0.000000 -0.028074 -3.616900 -0.583159 -0.000003 -0.000010 3.077006 -5.000204 7.999073 -0.000099 -4.850329 -176.670943 0.262824 179.999991 -0.000005 -1.012994 173.189569 -2.287755 -0.337140 0.000007 0.000001 0.079709 69.062331 6.897923 2.101165 25.456957 -7.355615 0.000000 -1.810002 176.607696 0.883578 -0.000005 -0.000004 -1.071460 -7.047014 1.600673 0.307974 -0.000003 -0.000001 -0.085909 69.222745 -6.896886 -2.088579 25.456962 7.355614 0.000000 
55.053791 -12.857513 91.617294 -0.576604 -0.053609 0.009103 -2.463019 0.015578 -0.038396 -0.924476 0.036792 -0.073650 0.720598 0.035800 -0.074056 20.467000 -0.023684 0.085279 0.725172 0.310446 0.025636 -16.399043 -41.228104 -19.056050 41.231496 -47.221674 79.212853 -0.000003 0.000015 -0.000005 2.561987 3.469160 -0.970322 -0.000004 0.000006 -2.999999 -5.000211 -7.998824 0.000136 -16.220135 39.074508 18.783355 45.567416 35.963483 -86.850855 0.000002 -0.000000 0.000001 -0.028073 -3.618941 -0.582406 -0.000002 -0.000010 3.077011 -5.000205 7.999073 -0.000101 -4.852609 -176.671954 0.262862 179.999991 -0.000005 -1.012994 173.184829 -2.287733 -0.337330 0.000007 0.000001 0.079711 69.062768 6.897980 2.101047 25.456953 -7.355613 0.000000 -1.807337 176.607682 0.884214 -0.000005 -0.000004 -1.071460 -7.043330 1.599673 0.308001 -0.000003 -0.000000 -0.085907 69.221577 -6.896863 -2.088649 25.456957 7.355614 -0.000001 
55.050491 -12.848115 91.615089 -0.577701 -0.052883 0.007510 -2.462478 0.015684 -0.038357 -0.923455 0.036698 -0.073394 0.721618 0.035708 -0.073796 20.457101 -0.021129 0.085388 0.733448 0.307218 0.025544 -16.404325 -41.224949 -19.062233 41.237004 -47.229696 79.216070 -0.000002 0.000016 -0.000006 2.584864 3.466918 -0.970402 -0.000004 0.000008 -2.999998 -5.000208 -7.998824 0.000133 -16.222102 39.074525 18.785431 45.568621 35.959481 -86.853683 0.000002 -0.000000 0.000000 -0.028072 -3.620591 -0.581672 -0.000002 -0.000011 3.077009 -5.000203 7.999071 -0.000097 -4.854872 -176.671954 0.262818 179.999991 -0.000005 -1.012994 173.180498 -2.287712 -0.336505 0.000007 0.000001 0.079713 69.063191 6.897968 2.101118 25.456953 -7.355614 0.000000 -1.805062 176.607682 0.884865 -0.000005 -0.000004 -1.071450 -7.040014 1.598731 0.308028 -0.000003 -0.000001 -0.085905 69.220525 -6.896882 -2.088616 25.456962 7.355615 -0.000000 
55.048492 -12.849817 91.611900 -0.578559 -0.052223 0.005835 -2.462039 0.015732 -0.038320 -0.922596 0.036480 -0.073181 0.722478 0.035493 -0.073577 20.447700 -0.016943 0.085315 0.741194 0.302745 0.025432 -16.409205 -41.220253 -19.067897 41.244319 -47.237237 79.221670 -0.000002 0.000015 -0.000004 2.604406 3.465476 -0.970470 -0.000004 0.000006 -3.000001 -5.000212 -7.998825 0.000132 -16.224114 39.075833 18.787596 45.568635 35.955004 -86.854974 0.000002 -0.000001 0.000001 -0.028072 -3.621742 -0.580975 -0.000001 -0.000011 3.077011 -5.000205 7.999071 -0.000102 -4.857095 -176.671982 0.262774 179.999991 -0.000005 -1.012994 173.176687 -2.287693 -0.336657 0.000007 0.000001 0.079716 69.063403 6.897979 2.101208 25.456957 -7.355615 0.000001 -1.803279 176.607682 0.885522 -0.000005 -0.000004 -1.071440 -7.037211 1.597878 0.308055 -0.000004 -0.000000 -0.085904 69.219685 -6.896874 -2.088668 25.456965 7.355613 0.000000 
55.054893 -12.853214 91.614395 -0.579130 -0.051649 0.004057 -2.461730 0.015713 -0.038288 -0.921938 0.036119 -0.073023 0.723135 0.035134 -0.073411 20.439000 -0.010883 0.085047 0.748212 0.296835 0.025320 -16.413431 -41.214065 -19.072827 41.253653 -47.244108 79.229737 -0.000003 0.000015 -0.000007 2.619883 3.464945 -0.970526 -0.000004 0.000005 -3.000008 -5.000209 -7.998824 0.000128 -16.225886 39.078360 18.789616 45.567211 35.949980 -86.854373 0.000002 -0.000001 0.000001 -0.028070 -3.622299 -0.580322 -0.000003 -0.000011 3.077009 -5.000204 7.999069 -0.000099 -4.859291 -176.671982 0.262729 179.999991 -0.000005 -1.012994 173.173477 -2.287678 -0.336785 0.000007 0.000001 0.079718 69.063506 6.897986 2.101204 25.456953 -7.355615 0.000001 -1.802098 176.607682 0.886175 -0.000005 -0.000004 -1.071440 -7.035048 1.597151 0.308082 -0.000003 -0.000001 -0.085902 69.219043 -6.896879 -2.088709 25.456959 7.355615 -0.000001 
